<svg width="15" height="15" viewBox="0 0 15 15" fill="none" xmlns="http://www.w3.org/2000/svg">
<path d="M14.3794 0.729536C14.4121 0.647948 14.4201 0.558569 14.4024 0.47248C14.3848 0.386391 14.3422 0.307378 14.2801 0.245236C14.218 0.183094 14.1389 0.140557 14.0529 0.122897C13.9668 0.105237 13.8774 0.113232 13.7958 0.14589L0.733809 5.37087H0.732911L0.327053 5.53249C0.250182 5.56315 0.183283 5.61447 0.133745 5.68077C0.0842073 5.74706 0.0539585 5.82576 0.0463401 5.90817C0.0387217 5.99058 0.0540302 6.07349 0.0905746 6.14775C0.127119 6.222 0.183477 6.28471 0.253423 6.32894L0.621569 6.5624L0.622467 6.5642L5.10756 9.41778L7.96114 13.9029L7.96294 13.9047L8.19639 14.2728C8.24077 14.3425 8.30351 14.3986 8.37771 14.4349C8.45191 14.4712 8.53469 14.4863 8.61694 14.4786C8.69919 14.4709 8.77772 14.4407 8.84388 14.3912C8.91005 14.3418 8.96128 14.275 8.99195 14.1983L14.3794 0.729536V0.729536ZM12.7336 2.4266L6.00458 9.15559L5.81153 8.85209C5.77615 8.7964 5.72894 8.74918 5.67325 8.71381L5.36975 8.52076L12.0987 1.79177L13.1565 1.36885L12.7345 2.4266H12.7336Z" fill="black"/>
</svg>
